<svg xmlns="http://www.w3.org/2000/svg" xmlns:xlink="http://www.w3.org/1999/xlink" version="1.1" width="25" height="25" viewBox="0 0 256 256" xml:space="preserve">

<defs>
</defs>
<g style="stroke: none; stroke-width: 0; stroke-dasharray: none; stroke-linecap: butt; stroke-linejoin: miter; stroke-miterlimit: 10; fill: none; fill-rule: nonzero; opacity: 1;" transform="translate(1.4065934065934016 1.4065934065934016) scale(2.81 2.81)" >
	<path d="M 45 2 c 3.004 0 6.001 0.314 8.934 0.935 l -14.021 41.5 l -0.233 0.69 l 0.265 0.678 l 15.957 40.798 C 52.353 87.53 48.696 88 45 88 C 21.29 88 2 68.71 2 45 S 21.29 2 45 2 M 45 0 C 20.147 0 0 20.147 0 45 c 0 24.853 20.147 45 45 45 c 4.727 0 9.283 -0.733 13.563 -2.085 l -16.755 -42.84 L 56.531 1.497 C 52.85 0.524 48.987 0 45 0 L 45 0 z" style="stroke: none; stroke-width: 1; stroke-dasharray: none; stroke-linecap: butt; stroke-linejoin: miter; stroke-miterlimit: 10; fill: rgb(159,160,164); fill-rule: nonzero; opacity: 1;" transform=" matrix(1 0 0 1 0 0) " stroke-linecap="round" />
	<path d="M 86.934 28.656 c -4.452 -11.41 -13.425 -20.558 -24.72 -25.239 L 49.59 40.788 L 86.934 28.656 z" style="stroke: none; stroke-width: 1; stroke-dasharray: none; stroke-linecap: butt; stroke-linejoin: miter; stroke-miterlimit: 10; fill: rgb(159,160,164); fill-rule: nonzero; opacity: 1;" transform=" matrix(1 0 0 1 0 0) " stroke-linecap="round" />
	<path d="M 87.245 36.967 C 87.747 39.612 88 42.306 88 45 c 0 15.856 -8.876 30.524 -22.787 37.954 L 51.739 48.501 L 87.245 36.967 M 88.733 34.38 l -39.63 12.874 L 64.15 85.725 C 79.424 78.53 90 63.003 90 45 C 90 41.341 89.558 37.786 88.733 34.38 L 88.733 34.38 z" style="stroke: none; stroke-width: 1; stroke-dasharray: none; stroke-linecap: butt; stroke-linejoin: miter; stroke-miterlimit: 10; fill: rgb(159,160,164); fill-rule: nonzero; opacity: 1;" transform=" matrix(1 0 0 1 0 0) " stroke-linecap="round" />
</g>
</svg>