<svg width="21" height="21" viewBox="0 0 21 21" fill="none" xmlns="http://www.w3.org/2000/svg">
<path d="M3.72095 0C1.65967 0 0 1.65967 0 3.72095V17.2791C0 19.3403 1.65967 21 3.72095 21H13.6999L21 10.5026L13.6999 2.1e-05L3.72095 0ZM9.30892 3.83382H11.6799C11.8255 3.83382 11.909 3.88706 11.909 4.01232V17.0796C11.909 17.1685 11.8671 17.222 11.7423 17.222H10.4527C10.3701 17.222 10.3077 17.1507 10.3077 17.0973V12.2594H9.2669L6.37612 17.0973C6.33463 17.1863 6.25155 17.222 6.12675 17.222H4.65018C4.48428 17.222 4.38024 17.0973 4.48415 16.9365L7.66565 12.0094C5.96072 11.3667 5.0039 10.0636 5.0039 8.2963C5.0039 5.35076 6.97981 3.8338 9.3089 3.8338L9.30892 3.83382ZM9.24657 4.9757C7.97792 4.9757 6.72985 5.88609 6.72985 8.11782C6.72985 10.2601 8.06102 11.1169 9.4336 11.1169H10.3077V4.9757H9.24657Z" fill="#626469"/>
</svg>
